# Blender v3.0.0 OBJ File: ''
# www.blender.org
mtllib moon.mtl
o Icosphere
v 0.000000 -10.000000 -0.000002
v 4.253227 -8.506543 3.090113
v -1.624556 -8.506545 4.999951
v 7.236073 -4.472196 5.257252
v 8.506478 -5.257359 -0.000001
v -5.257298 -8.506516 -0.000001
v -1.624556 -8.506543 -4.999954
v 4.253227 -8.506541 -3.090116
v 9.510578 -0.000001 3.090126
v -2.763880 -4.472199 8.506492
v 2.628688 -5.257379 8.090117
v 0.000000 -0.000002 9.999999
v -8.944263 -4.472156 -0.000001
v -6.881894 -5.257363 4.999968
v -9.510578 -0.000001 3.090126
v -2.763880 -4.472197 -8.506494
v -6.881894 -5.257361 -4.999970
v -5.877856 0.000001 -8.090167
v 7.236073 -4.472194 -5.257254
v 2.628688 -5.257376 -8.090118
v 5.877856 0.000001 -8.090167
v 5.877856 -0.000001 8.090167
v -5.877856 -0.000001 8.090167
v -9.510578 0.000001 -3.090126
v 0.000000 0.000002 -9.999999
v 9.510578 0.000001 -3.090126
v 2.763880 4.472197 8.506494
v 6.881894 5.257361 4.999970
v 1.624556 8.506543 4.999954
v -7.236073 4.472194 5.257254
v -2.628688 5.257376 8.090118
v -4.253227 8.506541 3.090116
v -7.236073 4.472196 -5.257252
v -8.506478 5.257359 0.000001
v -4.253227 8.506543 -3.090113
v 2.763880 4.472199 -8.506492
v -2.628688 5.257379 -8.090117
v 1.624556 8.506545 -4.999951
v 8.944263 4.472156 0.000001
v 6.881894 5.257363 -4.999968
v 5.257298 8.506516 0.000001
v 0.000000 10.000000 0.000002
vt 0.248707 0.499740
vt 0.119092 0.490021
vt 0.203892 0.387283
vt 0.000000 0.499741
vt 0.047749 0.617617
vt 0.331147 0.451384
vt 0.324992 0.593738
vt 0.193936 0.617616
vt 0.108244 0.067804
vt 0.207286 0.000000
vt 0.223598 0.119677
vt 0.919341 0.110785
vt 1.000000 0.059515
vt 0.998936 0.202001
vt 0.670791 0.119669
vt 0.789459 0.105701
vt 0.722720 0.235766
vt 0.562548 0.319478
vt 0.447193 0.267607
vt 0.575304 0.193641
vt 0.856497 0.719349
vt 0.730098 0.719349
vt 0.793479 0.617828
vt 0.095488 0.193641
vt 0.868814 0.230545
vt 0.344595 0.193642
vt 0.335396 0.073965
vt 0.447193 0.119677
vt 0.670791 0.267605
vt 0.939573 0.623049
vt 0.108243 0.319478
vt 0.223598 0.267607
vt 0.207286 0.387283
vt 0.458480 0.391798
vt 0.584798 0.387284
vt 0.525083 0.491002
vt 0.331147 0.608876
vt 0.378896 0.491001
vt 0.450239 0.618597
vt 0.742952 0.498068
vt 0.662293 0.446798
vt 0.791756 0.387283
vt 0.991502 0.506952
vt 0.872834 0.492984
vt 0.937850 0.392505
vt 0.662293 0.657234
vt 0.535038 0.721334
vt 0.579854 0.608878
vt 0.388852 0.721334
vt 0.656139 0.514880
vt 0.069096 0.387283
vt 0.335395 0.313319
vt 0.326196 0.193642
vt 0.663357 0.589283
vt 0.670790 0.119674
vt 0.562547 0.067804
vt 0.463505 0.000000
vt 0.348262 0.387283
vt 0.932195 0.332066
vt 0.805796 0.332066
vt 0.000000 0.267605
vt 0.601695 0.387283
vt 0.000001 0.119674
vt 0.335396 0.073965
vt 0.127332 0.716820
vt 0.017115 0.721334
vt 0.253651 0.721334
vt 0.463505 0.387283
vt 0.335396 0.313319
vt 0.724443 0.005222
vt 0.870537 0.000000
vt 0.057705 0.387283
vn 0.1024 -0.9435 0.3151
vn 0.7002 -0.6617 0.2680
vn -0.2680 -0.9435 0.1947
vn -0.2680 -0.9435 -0.1947
vn 0.1024 -0.9435 -0.3151
vn 0.9050 -0.3304 0.2680
vn 0.0247 -0.3304 0.9435
vn -0.8897 -0.3304 0.3151
vn -0.5746 -0.3304 -0.7488
vn 0.5346 -0.3304 -0.7779
vn 0.8026 -0.1256 0.5831
vn -0.3066 -0.1256 0.9435
vn -0.9921 -0.1256 -0.0000
vn -0.3066 -0.1256 -0.9435
vn 0.8026 -0.1256 -0.5831
vn 0.4089 0.6617 0.6284
vn -0.4713 0.6617 0.5831
vn -0.7002 0.6617 -0.2680
vn 0.0385 0.6617 -0.7488
vn 0.7240 0.6617 -0.1947
vn 0.2680 0.9435 -0.1947
vn 0.4911 0.7947 -0.3568
vn 0.4089 0.6617 -0.6284
vn -0.1024 0.9435 -0.3151
vn -0.1876 0.7947 -0.5773
vn -0.4713 0.6617 -0.5831
vn -0.3313 0.9435 0.0000
vn -0.6071 0.7947 0.0000
vn -0.7002 0.6617 0.2680
vn -0.1024 0.9435 0.3151
vn -0.1876 0.7947 0.5773
vn 0.0385 0.6617 0.7488
vn 0.2680 0.9435 0.1947
vn 0.4911 0.7947 0.3568
vn 0.7240 0.6617 0.1947
vn 0.8897 0.3304 -0.3151
vn 0.7947 0.1876 -0.5773
vn 0.5746 0.3304 -0.7488
vn -0.0247 0.3304 -0.9435
vn -0.3035 0.1876 -0.9342
vn -0.5346 0.3304 -0.7779
vn -0.9050 0.3304 -0.2680
vn -0.9822 0.1876 0.0000
vn -0.9050 0.3304 0.2680
vn -0.5346 0.3304 0.7779
vn -0.3035 0.1876 0.9342
vn -0.0247 0.3304 0.9435
vn 0.5746 0.3304 0.7488
vn 0.7947 0.1876 0.5773
vn 0.8897 0.3304 0.3151
vn 0.3066 0.1256 -0.9435
vn 0.3035 -0.1876 -0.9342
vn 0.0247 -0.3304 -0.9435
vn -0.8026 0.1256 -0.5831
vn -0.7947 -0.1876 -0.5773
vn -0.8897 -0.3304 -0.3151
vn -0.8026 0.1256 0.5831
vn -0.7947 -0.1876 0.5773
vn -0.5746 -0.3304 0.7488
vn 0.3066 0.1256 0.9435
vn 0.3035 -0.1876 0.9342
vn 0.5346 -0.3304 0.7779
vn 0.9921 0.1256 0.0000
vn 0.9822 -0.1876 -0.0000
vn 0.9050 -0.3304 -0.2680
vn 0.4713 -0.6617 -0.5831
vn 0.1876 -0.7947 -0.5773
vn -0.0385 -0.6617 -0.7488
vn -0.4089 -0.6617 -0.6284
vn -0.4911 -0.7947 -0.3568
vn -0.7240 -0.6617 -0.1947
vn -0.7240 -0.6617 0.1947
vn -0.4911 -0.7947 0.3568
vn -0.4089 -0.6617 0.6284
vn 0.7002 -0.6617 -0.2680
vn 0.6071 -0.7947 -0.0000
vn 0.3313 -0.9435 0.0000
vn -0.0385 -0.6617 0.7488
vn 0.1876 -0.7947 0.5773
vn 0.4713 -0.6617 0.5831
usemtl Material.001
s 1
f 1/1/1 2/2/1 3/3/1
f 4/4/2 2/2/2 5/5/2
f 1/1/3 3/3/3 6/6/3
f 1/1/4 6/6/4 7/7/4
f 1/1/5 7/7/5 8/8/5
f 4/9/6 5/10/6 9/11/6
f 10/12/7 11/13/7 12/14/7
f 13/15/8 14/16/8 15/17/8
f 16/18/9 17/19/9 18/20/9
f 19/21/10 20/22/10 21/23/10
f 4/9/11 9/11/11 22/24/11
f 10/12/12 12/14/12 23/25/12
f 13/26/13 15/27/13 24/28/13
f 16/18/14 18/20/14 25/29/14
f 19/21/15 21/23/15 26/30/15
f 27/31/16 28/32/16 29/33/16
f 30/34/17 31/35/17 32/36/17
f 33/37/18 34/38/18 35/39/18
f 36/40/19 37/41/19 38/42/19
f 39/43/20 40/44/20 41/45/20
f 41/46/21 38/47/21 42/48/21
f 41/45/22 40/44/22 38/42/22
f 40/44/23 36/40/23 38/42/23
f 38/47/24 35/39/24 42/48/24
f 38/47/25 37/49/25 35/39/25
f 37/49/26 33/37/26 35/39/26
f 35/39/27 32/36/27 42/48/27
f 35/39/28 34/38/28 32/36/28
f 34/38/29 30/34/29 32/36/29
f 32/36/30 29/50/30 42/48/30
f 32/36/31 31/35/31 29/50/31
f 31/51/32 27/31/32 29/33/32
f 29/50/33 41/46/33 42/48/33
f 29/33/34 28/32/34 41/52/34
f 28/32/35 39/53/35 41/52/35
f 26/30/36 40/44/36 39/43/36
f 26/30/37 21/23/37 40/44/37
f 21/23/38 36/40/38 40/44/38
f 25/54/39 37/41/39 36/40/39
f 25/29/40 18/20/40 37/55/40
f 18/20/41 33/56/41 37/55/41
f 24/28/42 34/57/42 33/56/42
f 24/28/43 15/27/43 34/57/43
f 15/58/44 30/34/44 34/38/44
f 23/25/45 31/59/45 30/60/45
f 23/25/46 12/14/46 31/59/46
f 12/61/47 27/31/47 31/51/47
f 22/24/48 28/32/48 27/31/48
f 22/24/49 9/11/49 28/32/49
f 9/11/50 39/53/50 28/32/50
f 21/23/51 25/54/51 36/40/51
f 21/23/52 20/22/52 25/54/52
f 20/62/53 16/18/53 25/29/53
f 18/20/54 24/28/54 33/56/54
f 18/20/55 17/19/55 24/28/55
f 17/19/56 13/26/56 24/28/56
f 15/17/57 23/25/57 30/60/57
f 15/17/58 14/16/58 23/25/58
f 14/16/59 10/12/59 23/25/59
f 12/61/60 22/24/60 27/31/60
f 12/61/61 11/63/61 22/24/61
f 11/63/62 4/9/62 22/24/62
f 9/11/63 26/64/63 39/53/63
f 9/11/64 5/10/64 26/64/64
f 5/5/65 19/65/65 26/66/65
f 8/8/66 20/67/66 19/65/66
f 8/8/67 7/7/67 20/67/67
f 7/68/68 16/18/68 20/62/68
f 7/68/69 17/19/69 16/18/69
f 7/68/70 6/69/70 17/19/70
f 6/69/71 13/26/71 17/19/71
f 6/70/72 14/16/72 13/15/72
f 6/70/73 3/71/73 14/16/73
f 3/71/74 10/12/74 14/16/74
f 5/5/75 8/8/75 19/65/75
f 5/5/76 2/2/76 8/8/76
f 2/2/77 1/1/77 8/8/77
f 3/71/78 11/13/78 10/12/78
f 3/3/79 2/2/79 11/72/79
f 2/2/80 4/4/80 11/72/80
