# Blender v3.0.0 OBJ File: 'temp_garden.blend'
# www.blender.org
mtllib temp_building.mtl
o Cube.002
v 1.000000 9.973443 -0.999993
v -1.000000 9.973443 -0.999993
v -0.991475 14.949689 -0.999992
v 0.984989 12.882297 -0.999992
v 1.000000 -0.099841 1.000000
v 1.000000 9.973443 1.000007
v -1.000000 9.973443 1.000007
v -1.000000 -0.099841 1.000000
v -1.000000 -0.099841 -1.000000
v 1.000000 -0.099841 -1.000000
v -0.991475 14.949689 1.000008
v 0.984989 12.882297 1.000008
vt 0.432000 0.478868
vt 0.221883 0.478868
vt 0.221883 0.478868
vt 0.442000 0.478868
vt 0.582117 0.585020
vt 0.582117 0.478868
vt 0.802234 0.478868
vt 0.802234 0.585020
vt 0.001766 0.585020
vt 0.001766 0.478868
vt 0.221883 0.585020
vt 0.442000 0.691172
vt 0.432000 0.585020
vt 0.582117 0.691172
vt 0.442000 0.372716
vt 0.582117 0.372716
vt 0.582117 0.478868
vt 0.882234 0.478868
vt 0.001766 0.478868
vn 0.0000 0.0000 -1.0000
vn 0.0000 -0.0000 1.0000
vn -1.0000 0.0000 0.0000
vn -1.0000 0.0009 0.0000
vn 0.0000 -1.0000 -0.0000
vn 1.0000 0.0000 0.0000
vn 1.0000 0.0026 0.0000
vn 0.7228 0.6910 0.0000
vn -1.0000 0.0017 0.0000
vn 1.0000 0.0052 0.0000
usemtl Material.004
s 1
f 1/1/1 2/2/1 3/3/1 4/4/1
f 5/5/2 6/6/2 7/7/2 8/8/2
f 8/9/3 7/10/4 2/2/4 9/11/3
f 9/12/5 10/13/5 5/5/5 8/14/5
f 10/13/6 1/1/7 6/6/7 5/5/6
f 9/11/1 2/2/1 1/1/1 10/13/1
f 4/4/8 3/15/8 11/16/8 12/17/8
f 7/7/2 6/6/2 12/17/2 11/18/2
f 2/2/4 7/10/4 11/19/9 3/3/9
f 6/6/7 1/1/7 4/4/10 12/17/10
