# Blender v3.0.0 OBJ File: ''
# www.blender.org
mtllib temp_building2.mtl
o Cube.001
v 1.000000 6.822398 -0.999999
v -1.000000 6.822398 -0.999999
v -0.953727 7.252944 -0.999998
v 0.947241 8.767119 -0.999999
v 1.000000 -0.068297 1.000000
v 1.000000 6.822398 1.000001
v -1.000000 6.822398 1.000001
v -1.000000 -0.068297 1.000000
v -1.000000 -0.068297 -1.000000
v 1.000000 -0.068297 -1.000000
v -0.953727 7.252944 1.000002
v 0.947241 8.767119 1.000001
vt 0.625000 0.500000
vt 0.625000 0.250000
vt 0.625000 0.250000
vt 0.625000 0.500000
vt 0.375000 0.750000
vt 0.625000 0.750000
vt 0.625000 1.000000
vt 0.375000 1.000000
vt 0.375000 0.000000
vt 0.625000 0.000000
vt 0.375000 0.250000
vt 0.125000 0.500000
vt 0.375000 0.500000
vt 0.125000 0.750000
vt 0.875000 0.500000
vt 0.875000 0.750000
vt 0.625000 0.750000
vt 0.625000 1.000000
vt 0.625000 0.000000
vn -0.0000 0.0000 -1.0000
vn 0.0000 -0.0000 1.0000
vn -1.0000 -0.0000 0.0000
vn -0.9986 0.0535 0.0000
vn 0.0000 -1.0000 -0.0000
vn 1.0000 -0.0000 0.0000
vn 0.9999 0.0136 -0.0000
vn -0.6230 0.7822 0.0000
vn -0.9943 0.1069 0.0000
vn 0.9996 0.0271 -0.0000
usemtl Material.001
s 1
f 1/1/1 2/2/1 3/3/1 4/4/1
f 5/5/2 6/6/2 7/7/2 8/8/2
f 8/9/3 7/10/4 2/2/4 9/11/3
f 9/12/5 10/13/5 5/5/5 8/14/5
f 10/13/6 1/1/7 6/6/7 5/5/6
f 9/11/1 2/2/1 1/1/1 10/13/1
f 4/4/8 3/15/8 11/16/8 12/17/8
f 7/7/2 6/6/2 12/17/2 11/18/2
f 2/2/4 7/10/4 11/19/9 3/3/9
f 6/6/7 1/1/7 4/4/10 12/17/10
