# Blender v3.0.0 OBJ File: 'temp_garden.blend'
# www.blender.org
mtllib temp_garden.mtl
o Cube.001
v 2.000000 8.493690 -2.000000
v -2.000000 8.493690 -2.000000
v -1.985854 8.702512 -2.000000
v 1.972882 8.694735 -2.000000
v 1.094799 7.970081 1.094799
v 2.000000 8.493690 2.000000
v -2.000000 8.493690 2.000000
v -1.094799 7.970081 1.094799
v -1.094799 7.970082 -1.094799
v 1.094799 7.970082 -1.094799
v -1.985854 8.702511 2.000000
v 1.972882 8.694735 2.000000
v -1.506785 8.701571 -1.515938
v -1.506785 8.701571 1.515938
v 1.493813 8.695676 -1.515938
v 1.493813 8.695676 1.515938
v -1.507416 8.621339 -1.515938
v -1.507416 8.621338 1.515938
v 1.493183 8.615444 -1.515938
v 1.493183 8.615444 1.515938
vt 0.625000 0.500000
vt 0.625000 0.250000
vt 0.625000 0.250000
vt 0.625000 0.500000
vt 0.125000 0.500000
vt 0.375000 0.500000
vt 0.375000 0.750000
vt 0.125000 0.750000
vt 0.625000 0.000000
vt 0.625000 0.000000
vt 0.625000 0.250000
vt 0.625000 1.000000
vt 0.625000 0.750000
vt 0.625000 0.750000
vt 0.625000 1.000000
vt 0.625000 0.000000
vt 0.625000 0.750000
vt 0.625000 1.000000
vt 0.625000 0.500000
vt 0.999900 0.000100
vt 0.999900 0.990908
vt 0.000100 0.990908
vt 0.000100 0.000100
vt 0.375000 1.000000
vt 0.375000 0.000000
vt 0.375000 0.250000
vt 0.625000 0.750000
vt 0.625000 1.000000
vt 0.625000 0.500000
vt 0.625000 0.250000
vt 0.625000 0.000000
vn 0.0000 -0.3695 -0.9292
vn 0.0000 -0.3585 -0.9335
vn 0.0000 0.0000 -1.0000
vn 0.0000 -1.0000 -0.0000
vn 0.0020 1.0000 -0.0000
vn 0.0000 -0.3585 0.9335
vn 0.0000 -0.3695 0.9292
vn 0.0000 0.0000 1.0000
vn -0.9528 -0.3035 0.0000
vn -0.9977 0.0676 0.0000
vn 0.9659 -0.2588 0.0000
vn 0.9910 0.1337 0.0000
vn 0.0000 -0.8656 0.5007
vn -0.5007 -0.8656 0.0000
vn 0.5007 -0.8656 0.0000
vn 0.0000 -0.8656 -0.5007
vn 0.7058 -0.0055 -0.7084
vn -0.7084 0.0056 -0.7058
vn -0.7058 0.0055 -0.7084
vn 0.7084 -0.0056 -0.7058
vn -0.7084 0.0056 0.7058
vn -0.7058 0.0055 0.7084
vn 0.7058 -0.0055 0.7084
vn 0.7084 -0.0056 0.7058
usemtl Material.001
s 1
f 1/1/1 2/2/2 3/3/3 4/4/3
f 9/5/4 10/6/4 5/7/4 8/8/4
f 3/3/5 11/9/5 14/10/5 13/11/5
f 7/12/6 6/13/7 12/14/8 11/15/8
f 2/2/9 7/16/9 11/9/10 3/3/10
f 6/13/11 1/1/11 4/4/12 12/14/12
f 11/15/5 12/14/5 16/17/5 14/18/5
f 4/4/5 3/3/5 13/11/5 15/19/5
f 12/14/5 4/4/5 15/19/5 16/17/5
usemtl Material.002
f 19/20/5 17/21/5 18/22/5 20/23/5
usemtl Material.003
f 5/7/13 6/13/7 7/12/6 8/24/13
f 8/25/14 7/16/9 2/2/9 9/26/14
f 10/6/15 1/1/11 6/13/11 5/7/15
f 9/26/16 2/2/2 1/1/1 10/6/16
f 14/18/17 16/17/18 20/27/19 18/28/20
f 16/17/18 15/19/21 19/29/22 20/27/19
f 15/19/21 13/11/23 17/30/24 19/29/22
f 13/11/23 14/10/17 18/31/20 17/30/24
