# Blender v3.0.0 OBJ File: 'bus.blend'
# www.blender.org
mtllib temp_bus.mtl
o Cube_Cube.001
v 2.613591 24.544029 9.611133
v 3.054489 25.680006 9.611133
v 0.882419 30.140375 13.471262
v 3.054489 39.147850 9.611133
v 2.613591 40.283829 9.611133
v 0.882419 34.687481 13.471262
v -2.613590 24.544029 9.611133
v -0.882418 30.140375 13.471262
v -3.054488 25.680006 9.611133
v -2.613590 40.283829 9.611133
v -3.054488 39.147850 9.611133
v -0.882418 34.687481 13.471262
v 2.613590 24.544029 -9.611133
v 2.613590 25.680006 -11.232478
v 3.054488 25.680006 -9.611133
v 2.613590 40.283829 -9.611133
v 3.054488 39.147850 -9.611133
v 2.613590 39.147850 -11.232478
v -2.613591 24.544029 -9.611133
v -3.054489 25.680006 -9.611133
v -2.613591 25.680006 -11.232478
v -2.613591 40.283829 -9.611133
v -2.613591 39.147850 -11.232478
v -3.054489 39.147850 -9.611133
vt 0.324735 0.525371
vt 0.324735 0.850106
vt 0.000000 0.850106
vt 0.000000 0.525371
vt 0.352126 0.268358
vt 0.352126 0.497981
vt 0.027390 0.497981
vt 0.027390 0.268358
vt 0.770378 0.406907
vt 1.000000 0.406907
vt 1.000000 0.731642
vt 0.770378 0.731642
vt 0.514454 0.134938
vt 0.624094 0.134938
vt 0.624094 0.244578
vt 0.514454 0.244578
vt 0.731642 0.406907
vt 0.731642 0.731642
vt 0.406907 0.731642
vt 0.406907 0.406907
vt 0.379516 0.027390
vt 0.406907 0.000000
vt 0.731642 0.000000
vt 0.759032 0.027391
vt 0.379516 0.352126
vt 0.406906 0.379516
vt 0.759032 0.352126
vt 0.731642 0.379516
vt 0.027390 0.229622
vt 0.000000 0.248990
vt 0.751010 0.759032
vt 0.731642 0.731642
vt 0.352126 0.229622
vt 0.379516 0.248990
vt 0.731642 0.406907
vt 0.751010 0.379516
vt 0.406907 0.379516
vt 0.731642 0.379516
vt 0.731642 0.759032
vt 0.406907 0.759032
vt 0.379516 0.731642
vt 0.379516 0.406907
vt 0.352126 0.525371
vt 0.352126 0.850106
vt 0.000000 0.497981
vt 0.324735 0.497981
vt 0.324735 0.877497
vt 0.000000 0.877497
vt 0.352126 0.000000
vt 0.027391 0.000000
vn 1.0000 0.0000 -0.0000
vn 0.0000 0.0000 -1.0000
vn 0.0000 1.0000 -0.0000
vn 0.0000 0.0000 1.0000
vn -1.0000 0.0000 0.0000
vn 0.6784 -0.2633 0.6859
vn 0.6784 0.2633 0.6859
vn -0.6784 -0.2633 0.6859
vn -0.6784 0.2633 0.6859
vn 0.9037 -0.3507 -0.2457
vn 0.9037 0.3507 -0.2457
vn -0.9037 -0.3507 -0.2457
vn -0.9037 0.3507 -0.2457
vn 0.0000 -0.5678 0.8232
vn 0.8715 0.0000 0.4904
vn 0.0000 0.5678 0.8232
vn -0.8715 0.0000 0.4904
vn -0.9322 -0.3618 0.0000
vn -0.9322 0.3618 0.0000
vn -0.9650 0.0000 -0.2624
vn 0.0000 -0.8190 -0.5738
vn 0.0000 0.8190 -0.5738
vn 0.9650 0.0000 -0.2624
vn 0.9322 -0.3618 -0.0000
vn 0.9322 0.3618 -0.0000
vn 0.0000 -1.0000 0.0000
usemtl Material.001
s off
f 15/1/1 17/2/1 4/3/1 2/4/1
f 21/5/2 23/6/2 18/7/2 14/8/2
f 22/9/3 10/10/3 5/11/3 16/12/3
f 3/13/4 6/14/4 12/15/4 8/16/4
f 9/17/5 11/18/5 24/19/5 20/20/5
f 1/21/6 2/22/6 3/13/6
f 4/23/7 5/24/7 6/14/7
f 7/25/8 8/16/8 9/26/8
f 10/27/9 11/28/9 12/15/9
f 13/29/10 14/8/10 15/30/10
f 16/12/11 17/31/11 18/32/11
f 19/33/12 20/34/12 21/5/12
f 22/9/13 23/35/13 24/36/13
f 7/25/14 1/21/14 3/13/14 8/16/14
f 2/22/15 4/23/15 6/14/15 3/13/15
f 5/24/16 10/27/16 12/15/16 6/14/16
f 11/28/17 9/26/17 8/16/17 12/15/17
f 19/37/18 7/38/18 9/17/18 20/20/18
f 10/39/19 22/40/19 24/19/19 11/18/19
f 23/41/20 21/42/20 20/20/20 24/19/20
f 13/29/21 19/33/21 21/5/21 14/8/21
f 22/9/22 16/12/22 18/32/22 23/35/22
f 17/2/23 15/1/23 14/43/23 18/44/23
f 1/45/24 13/46/24 15/1/24 2/4/24
f 16/47/25 5/48/25 4/3/25 17/2/25
f 7/49/26 19/33/26 13/29/26 1/50/26
